<svg width="18" height="17" viewBox="0 0 18 17" fill="none" xmlns="http://www.w3.org/2000/svg">
<path d="M2.33341 16.5003C1.87508 16.5003 1.48286 16.3373 1.15675 16.0112C0.830081 15.6845 0.666748 15.292 0.666748 14.8337V5.66699C0.666748 5.20866 0.830081 4.81644 1.15675 4.49033C1.48286 4.16366 1.87508 4.00033 2.33341 4.00033H5.66675V2.33366C5.66675 1.87533 5.83008 1.48283 6.15675 1.15616C6.48286 0.830048 6.87508 0.666992 7.33342 0.666992H10.6667C11.1251 0.666992 11.5176 0.830048 11.8442 1.15616C12.1704 1.48283 12.3334 1.87533 12.3334 2.33366V4.00033H15.6667C16.1251 4.00033 16.5176 4.16366 16.8442 4.49033C17.1704 4.81644 17.3334 5.20866 17.3334 5.66699V14.8337C17.3334 15.292 17.1704 15.6845 16.8442 16.0112C16.5176 16.3373 16.1251 16.5003 15.6667 16.5003H2.33341ZM7.33342 4.00033H10.6667V2.33366H7.33342V4.00033ZM15.6667 11.5003H11.5001V13.167H6.50008V11.5003H2.33341V14.8337H15.6667V11.5003ZM8.16675 11.5003H9.83342V9.83366H8.16675V11.5003ZM2.33341 9.83366H6.50008V8.16699H11.5001V9.83366H15.6667V5.66699H2.33341V9.83366Z" fill="#333333"/>
</svg>
