<svg width="18" height="14" viewBox="0 0 18 14" fill="none" xmlns="http://www.w3.org/2000/svg">
<path d="M2.33341 13.6663C1.87508 13.6663 1.48286 13.5033 1.15675 13.1772C0.830081 12.8505 0.666748 12.458 0.666748 11.9997V1.99967C0.666748 1.54134 0.830081 1.14912 1.15675 0.823008C1.48286 0.496341 1.87508 0.333008 2.33341 0.333008H15.6667C16.1251 0.333008 16.5176 0.496341 16.8442 0.823008C17.1704 1.14912 17.3334 1.54134 17.3334 1.99967V11.9997C17.3334 12.458 17.1704 12.8505 16.8442 13.1772C16.5176 13.5033 16.1251 13.6663 15.6667 13.6663H2.33341ZM9.00008 7.83301L15.6667 3.66634V1.99967L9.00008 6.16634L2.33341 1.99967V3.66634L9.00008 7.83301Z" fill="#333333"/>
</svg>
